PathFileType  4	(X/Y/Z) C:\Users\antoi\Documents\MyRepositories\mobilecap\ResultsAnalysis
DataRate	CameraRate	NumFrames	NumMarkers	Units	OrigDataRate	OrigDataStartFrame	OrigNumFrames
100.0	100.0	5	51	mm	100.0	114	181
Frame#	Time	r_knee			r_shank_antsup			r_ankle			r_calc			r_5meta			r_toe			L_knee			L_shank_antsup			L_ankle			L_calc			L_5meta			L_toe			r_sh2			r_sh3			r_sh4			L_sh2			L_sh3			r_thigh1			r_thigh2			r_thigh3			r_thigh4			r_thigh5			L_thigh1			L_thigh2			L_thigh3			L_thigh4			r.ASIS			r.PSIS			L.ASIS			L.PSIS			C7			R_Shoulder			L_Shoulder			R_Sternum			L_Sternum			R_humerus			R_elbow_med			R_elbow_lat			R_forearm			R_wrist_radius			R_wrist_ulna			L_humerus			L_elbow_med			L_elbow_lat			L_forearm			L_wrist_radius			L_wrist_ulna			R_HJC			L_HJC			R_HJC_reg			L_HJC_reg			
		X1	Y1	Z1	X2	Y2	Z2	X3	Y3	Z3	X4	Y4	Z4	X5	Y5	Z5	X6	Y6	Z6	X7	Y7	Z7	X8	Y8	Z8	X9	Y9	Z9	X10	Y10	Z10	X11	Y11	Z11	X12	Y12	Z12	X13	Y13	Z13	X14	Y14	Z14	X15	Y15	Z15	X16	Y16	Z16	X17	Y17	Z17	X18	Y18	Z18	X19	Y19	Z19	X20	Y20	Z20	X21	Y21	Z21	X22	Y22	Z22	X23	Y23	Z23	X24	Y24	Z24	X25	Y25	Z25	X26	Y26	Z26	X27	Y27	Z27	X28	Y28	Z28	X29	Y29	Z29	X30	Y30	Z30	X31	Y31	Z31	X32	Y32	Z32	X33	Y33	Z33	X34	Y34	Z34	X35	Y35	Z35	X36	Y36	Z36	X37	Y37	Z37	X38	Y38	Z38	X39	Y39	Z39	X40	Y40	Z40	X41	Y41	Z41	X42	Y42	Z42	X43	Y43	Z43	X44	Y44	Z44	X45	Y45	Z45	X46	Y46	Z46	X47	Y47	Z47	X48	Y48	Z48	X49	Y49	Z49	X50	Y50	Z50	X51	Y51	Z51	

114	1.13000000	1065.21755	483.26433	-48.96693	1065.70474	362.10367	-65.73111	878.17704	158.16753	-49.27501	809.60448	135.47474	-88.12130	969.53485	70.76039	-30.91379	1004.23193	77.44549	-79.45026	841.46791	477.04929	-334.95559	884.90562	377.98474	-296.73849	807.41171	84.67210	-274.34473	768.35458	56.57094	-223.73151	935.87668	33.70441	-277.15180	973.21991	65.29508	-229.33372	1003.10669	267.84624	-69.62975	1023.99119	385.27322	-7.11797	948.98649	301.39658	-15.25013	820.09833	392.97111	-354.33812	811.43169	273.72757	-354.97508	1010.34482	788.44901	-45.10514	1065.74302	692.75846	-46.63271	1039.40318	649.40999	-2.21822	923.70170	737.41772	2.46286	983.26102	637.70074	0.58534	937.72733	765.76828	-364.90699	937.94591	629.11344	-357.60024	828.58746	767.99360	-388.13516	828.24336	627.80237	-368.83665	989.26944	928.64297	-78.52717	804.19406	973.94434	-122.42373	974.61004	934.73825	-321.84367	790.85895	984.23154	-238.38763	836.75788	1419.01227	-295.13652	916.17151	1422.83359	-148.32755	863.59361	1334.26257	-440.58766	959.28197	1357.06662	-278.58588	949.40960	1341.18329	-319.52946	937.21239	1315.25747	-55.38474	833.52062	1126.62372	-35.32769	882.36513	1138.93667	19.95073	936.71532	1022.46196	38.42393	967.20836	922.08655	39.52964	940.12254	918.71911	68.15048	875.43249	1179.57138	-478.38208	833.58914	993.55967	-390.43655	823.29605	996.97649	-462.37480	879.26446	916.45060	-496.18170	944.78655	804.29515	-495.51876	915.17810	789.23501	-498.55504	898.22735	858.36743	-96.40226	885.86997	862.65632	-285.32412	919.06736	854.20333	-111.14502	900.75399	868.33016	-270.40384	
115	1.14000000	1076.94192	485.78651	-49.87833	1082.38166	364.66897	-67.20801	904.64303	151.75964	-50.05201	836.55836	126.77665	-87.99124	999.81166	69.01572	-32.70044	1033.98379	77.67701	-81.50512	844.07497	477.30392	-334.68393	887.02677	377.78073	-296.81136	807.47032	84.98089	-274.16891	768.20718	56.93223	-223.79249	936.10503	33.83861	-277.22007	973.38356	65.25238	-229.53898	1024.23828	267.96208	-70.84895	1040.49399	385.61521	-7.92752	969.21120	298.62499	-15.55230	821.99251	393.37663	-353.97323	812.40279	274.28611	-354.66544	1018.20771	790.31743	-45.51826	1075.87275	696.09392	-47.41682	1048.96277	651.54651	-3.01648	932.24075	738.18919	2.36279	992.94274	639.22810	-0.00462	942.13986	765.42481	-365.09195	941.61694	628.76849	-357.92254	832.95785	768.37918	-387.78314	831.28488	628.55630	-368.18609	996.02409	929.31530	-79.14922	810.70218	974.24399	-122.16347	980.17847	934.54391	-322.47153	796.89845	984.27099	-238.04123	843.67089	1418.82128	-296.52350	922.64827	1422.72639	-149.46699	870.59619	1333.69559	-441.67227	966.05080	1356.65252	-279.49504	956.15143	1340.66405	-320.45704	943.13569	1315.53758	-55.90258	838.84415	1127.15134	-35.36763	887.61638	1139.60546	19.95204	941.65145	1022.97794	38.96779	971.69964	922.46291	40.45417	944.64038	919.44648	69.21492	883.18801	1179.10379	-479.25080	842.00520	992.67885	-391.89835	832.44873	996.08465	-463.90066	889.93043	916.30024	-497.20751	957.18495	805.12757	-496.07939	927.71416	789.71493	-499.25787	905.00241	858.87216	-96.30506	891.64989	862.56047	-285.17205	925.70075	854.51136	-111.34470	906.73026	868.29040	-270.59789	
116	1.15000000	1088.16523	488.07494	-50.74640	1098.56852	367.32730	-68.68448	931.00762	145.79631	-51.19790	863.62448	118.59066	-88.43743	1029.66645	67.70033	-34.86200	1063.30162	78.31257	-83.86987	846.75640	477.52112	-334.36717	889.17434	377.54394	-296.83444	807.54683	85.32702	-273.89813	768.01723	57.29090	-223.74816	936.27365	33.94904	-277.24061	973.62812	65.17952	-229.66214	1044.90479	268.29884	-72.18927	1056.45364	386.07849	-8.84199	989.02489	296.10276	-16.12560	823.91604	393.75760	-353.54417	813.37269	274.79504	-354.26817	1026.01645	791.98274	-45.87247	1085.42735	698.87609	-48.06757	1058.13467	653.39915	-3.72063	940.58272	738.88188	2.16466	1002.23867	640.57518	-0.57528	946.66245	765.04342	-365.32449	945.35302	628.37449	-358.20273	837.41872	768.67226	-387.45871	834.32427	629.31379	-367.47658	1002.78136	929.87909	-79.85025	817.19729	974.51033	-121.94882	985.80762	934.29391	-323.15749	802.98066	984.24591	-237.73114	850.58777	1418.61562	-297.75484	929.17694	1422.53745	-150.50328	877.57579	1333.21530	-442.66693	972.78096	1356.19664	-280.32991	962.88778	1340.14442	-321.31595	949.16298	1315.67974	-56.38572	844.23345	1127.57908	-35.30126	892.92354	1140.20154	20.05239	946.64346	1023.43888	39.63795	976.25507	922.79238	41.50824	949.27772	920.11084	70.37830	890.92874	1178.73670	-480.03674	850.32336	991.93797	-393.29349	841.50775	995.32214	-465.33070	900.44581	916.27576	-498.14035	969.33671	806.02274	-496.52212	939.98852	790.31528	-499.88324	911.77854	859.29534	-96.28143	897.45011	862.41625	-285.08809	932.28942	854.79996	-111.62180	912.73636	868.18913	-270.86772	
117	1.16000000	1098.91152	490.11786	-51.59707	1114.22555	370.06626	-70.13743	957.14617	140.35155	-52.70518	890.67554	110.96036	-89.43165	1059.00834	66.85080	-37.34596	1092.08747	79.34930	-86.49226	849.51110	477.72305	-334.02173	891.33743	377.29784	-296.83253	807.63190	85.72019	-273.54390	767.85094	57.62572	-223.60651	936.37867	34.03274	-277.22926	973.96148	65.07777	-229.72103	1065.05619	268.85808	-73.62283	1071.77860	386.66924	-9.87887	1008.33513	293.85092	-17.01426	825.85193	394.13039	-353.07406	814.33113	275.28037	-353.81636	1033.75005	793.42104	-46.17556	1094.32667	701.05988	-48.63872	1066.96777	654.97865	-4.32705	948.74270	739.49041	1.90021	1011.21177	641.73813	-1.07087	951.31232	764.64269	-365.58510	949.15958	627.94616	-358.43409	841.97955	768.89994	-387.16843	837.46289	630.02682	-366.78321	1009.55036	930.34527	-80.59594	823.70771	974.72993	-121.79037	991.53390	933.99761	-323.87096	809.11635	984.16499	-237.47580	857.50238	1418.40737	-298.84251	935.75685	1422.26633	-151.43679	884.53269	1332.82783	-443.58229	979.46724	1355.70404	-281.10472	969.62155	1339.62819	-322.11759	955.27767	1315.67661	-56.83931	849.70952	1127.90289	-35.17982	898.28284	1140.71036	20.22959	951.68733	1023.84770	40.40094	980.85828	923.05525	42.70028	954.03556	920.70274	71.64050	898.64968	1178.47747	-480.75711	858.55682	991.35169	-394.60726	850.47260	994.69195	-466.65159	910.78491	916.38010	-498.97603	981.21623	806.97735	-496.85883	951.98103	791.03240	-500.42388	918.56796	859.64037	-96.32168	903.31244	862.22813	-285.06502	938.88103	855.05041	-111.95098	918.79755	868.03661	-271.18385	
118	1.17000000	1109.20171	491.90885	-52.45061	1129.30760	372.84854	-71.54928	982.94176	135.48533	-54.56980	917.56921	103.91273	-90.94389	1087.75906	66.50527	-40.11229	1120.25686	80.79828	-89.33214	852.33668	477.93169	-333.67052	893.51917	377.06728	-296.82233	807.72662	86.16541	-273.12502	767.75086	57.93506	-223.38117	936.43719	34.10086	-277.20041	974.37104	64.94703	-229.73479	1084.66054	269.62573	-75.13628	1086.39875	387.35179	-11.04082	1027.06322	291.85226	-18.24058	827.80350	394.50444	-352.59221	815.29224	275.76960	-353.34563	1041.38604	794.62123	-46.44095	1102.65237	702.71945	-49.16759	1075.51908	656.31436	-4.83845	956.73306	740.01247	1.62065	1019.92395	642.71935	-1.44777	956.08595	764.23179	-365.85721	953.04529	627.49669	-358.62022	846.64492	769.09718	-386.91789	840.79178	630.65291	-366.17432	1016.34623	930.72501	-81.35052	830.26510	974.89104	-121.69552	997.37854	933.66282	-324.58465	815.32065	984.03320	-237.28662	864.41481	1418.20535	-299.80119	942.38336	1421.91604	-152.26497	891.47135	1332.53565	-444.42625	986.12323	1355.18497	-281.82694	976.35483	1339.11964	-322.86689	961.45583	1315.53392	-57.25888	855.28945	1128.11599	-35.05703	903.69091	1141.11718	20.45558	956.77467	1024.20292	41.20792	985.50754	923.24061	44.03127	958.89501	921.22098	72.99656	906.34255	1178.32714	-481.43104	866.72928	990.92047	-395.82407	859.34579	994.19483	-467.85927	920.93077	916.60722	-499.71434	992.80208	807.98623	-497.09973	963.67607	791.85592	-500.87267	925.38703	859.91147	-96.41246	909.27224	861.99801	-285.09172	945.51867	855.24623	-112.30291	924.93476	867.83865	-271.51740	
